<?xml version="1.0" standalone="no"?>
<!DOCTYPE svg PUBLIC "-//W3C//DTD SVG 20010904//EN"
 "http://www.w3.org/TR/2001/REC-SVG-20010904/DTD/svg10.dtd">
<svg version="1.0" xmlns="http://www.w3.org/2000/svg"
 width="704.000000pt" height="704.000000pt" viewBox="0 0 704.000000 704.000000"
 preserveAspectRatio="xMidYMid meet">
<metadata>
Created by potrace 1.14, written by Peter Selinger 2001-2017
</metadata>
<g transform="translate(0.000000,704.000000) scale(0.100000,-0.100000)"
fill="#000000" stroke="none">
<path d="M3155 6680 c-143 -15 -208 -27 -315 -58 -188 -56 -443 -161 -437
-181 1 -5 -19 -31 -45 -59 -26 -27 -44 -53 -40 -57 4 -5 1 -5 -5 -1 -8 4 -13
2 -13 -6 0 -11 -2 -10 -9 0 -6 10 -10 8 -16 -10 -6 -18 -8 -20 -12 -6 -2 10 9
29 28 47 18 17 28 31 23 31 -5 0 6 9 24 20 17 11 32 22 32 25 0 7 -109 -49
-163 -84 l-37 -24 -63 44 c-115 80 -292 195 -309 202 -29 11 -20 27 15 27 36
0 136 -45 242 -110 112 -68 113 -65 8 13 -76 56 -166 104 -214 112 -46 9 -82
-9 -136 -68 -51 -55 -80 -111 -149 -290 -95 -243 -106 -290 -108 -462 -1 -143
-3 -152 -29 -204 -16 -29 -26 -60 -22 -69 3 -9 3 -13 -1 -9 -4 4 -15 -10 -24
-31 -10 -21 -46 -85 -80 -143 -88 -145 -220 -419 -274 -571 -25 -70 -46 -133
-46 -140 1 -7 23 46 49 117 55 147 206 463 236 493 13 13 -16 -51 -35 -78 -11
-16 -20 -34 -20 -42 0 -8 -4 -18 -9 -23 -13 -15 -72 -154 -75 -178 -2 -12 -8
-35 -15 -50 -14 -35 -14 -58 0 -77 9 -12 10 -11 6 8 -3 12 -1 22 4 22 11 0 13
-12 9 -65 -2 -35 0 -38 14 -26 29 24 19 -30 -15 -85 -86 -134 -195 -446 -213
-609 -4 -27 5 0 20 60 49 213 136 434 237 608 38 64 97 141 103 134 3 -3 -9
-56 -25 -118 -16 -63 -37 -152 -46 -198 -12 -60 -26 -96 -49 -130 -53 -75
-101 -170 -139 -271 -36 -98 -56 -178 -37 -150 5 8 10 21 10 28 0 7 23 71 52
143 36 90 54 126 61 117 6 -10 7 -9 4 4 -3 9 0 24 7 34 28 38 0 -72 -33 -131
-18 -31 -50 -107 -72 -167 -21 -61 -42 -115 -45 -120 -10 -15 -12 -222 -4
-287 l7 -56 -127 -125 c-309 -305 -444 -519 -455 -724 -4 -68 -4 -69 4 -15 17
116 65 231 153 364 69 104 225 280 326 370 l46 40 -39 -50 c-54 -70 -148 -280
-150 -335 0 -8 -4 -21 -8 -27 -13 -21 0 -15 30 13 15 15 27 30 26 35 -2 5 5 9
16 9 10 0 24 7 31 15 7 9 15 14 17 12 2 -3 5 -85 7 -183 2 -147 0 -192 -15
-254 -11 -41 -18 -84 -18 -95 0 -11 6 3 13 30 7 28 24 67 38 88 l26 37 -3 -87
c-2 -49 -8 -108 -14 -133 -6 -25 -10 -61 -10 -80 1 -23 5 -11 14 36 20 112 29
119 54 43 11 -35 36 -122 55 -194 34 -129 34 -130 35 -72 1 70 20 69 22 -1 2
-40 3 -36 13 32 l11 80 23 -75 c36 -116 116 -269 180 -345 55 -66 155 -155
197 -175 11 -6 2 4 -20 22 -79 64 -177 169 -171 184 3 8 0 14 -6 12 -14 -3
-89 124 -123 210 -16 37 -29 91 -31 118 l-3 50 15 -50 c16 -52 28 -82 49 -125
7 -14 10 -32 7 -40 -2 -8 -1 -12 3 -8 4 4 13 -2 20 -15 32 -59 58 -103 71
-118 8 -8 14 -21 14 -28 0 -7 6 -11 13 -8 8 3 19 -7 26 -25 8 -17 19 -27 27
-24 8 3 11 0 7 -10 -6 -17 8 -18 26 -1 10 10 11 9 6 -5 -4 -11 -2 -18 5 -18 6
0 18 -6 26 -14 7 -8 22 -12 32 -9 12 3 30 -9 54 -35 20 -22 38 -38 40 -36 3 2
15 -7 27 -20 14 -15 29 -22 39 -19 11 5 13 3 7 -8 -4 -8 -4 -11 0 -6 5 4 22
-5 38 -20 31 -28 28 -15 -3 22 -39 44 -112 185 -135 258 -18 57 -25 100 -25
162 0 82 39 346 62 415 l11 35 15 -35 c12 -27 16 -82 17 -240 2 -182 4 -213
24 -273 12 -37 26 -67 32 -67 6 0 7 -4 4 -10 -3 -6 1 -7 9 -4 9 3 16 2 16 -3
0 -6 12 -23 26 -39 20 -22 25 -24 19 -9 -29 84 -38 146 -36 250 1 55 4 66 12
52 29 -49 164 -402 185 -482 20 -79 23 -85 24 -47 0 44 -25 146 -59 236 -19
51 -30 101 -36 162 -2 17 -6 60 -11 95 -4 35 -8 79 -8 97 -2 32 -1 32 14 12 9
-12 27 -50 40 -86 14 -35 27 -64 31 -64 9 0 29 -48 29 -70 0 -10 5 -31 11 -47
6 -15 9 -28 7 -28 -2 0 3 -7 10 -15 7 -8 39 -55 71 -103 31 -49 79 -111 107
-139 94 -97 211 -177 236 -162 7 4 8 3 4 -4 -8 -14 54 -27 83 -17 12 4 21 2
21 -4 0 -6 6 -11 14 -11 19 0 27 -25 13 -39 -8 -8 -3 -11 21 -12 45 -2 49 -3
59 -13 4 -5 3 -7 -2 -3 -14 8 -26 -2 -49 -37 -15 -24 -16 -28 -3 -23 11 4 14
2 10 -9 -3 -7 -9 -14 -13 -14 -10 0 -8 -20 4 -39 6 -10 5 -12 -3 -7 -9 6 -11
-7 -7 -51 6 -80 17 -124 28 -117 6 4 8 -2 3 -15 -4 -13 -2 -21 5 -21 6 0 10
-6 7 -12 -2 -7 5 -29 16 -48 57 -100 99 -150 122 -145 5 1 7 0 3 -2 -13 -8 -9
-18 13 -32 20 -12 21 -11 16 11 -8 30 70 -53 136 -145 62 -86 67 -100 35 -92
-36 9 -103 -9 -165 -47 -66 -38 -223 -192 -246 -240 -9 -18 -32 -55 -51 -83
-20 -27 -76 -110 -126 -182 l-90 -133 90 0 90 0 0 49 0 49 103 97 c56 53 114
106 128 116 l27 19 28 -43 c16 -23 41 -57 56 -75 15 -18 28 -40 28 -49 0 -9 7
-25 17 -35 15 -17 14 -18 -22 -18 -56 0 -166 -20 -198 -37 -23 -11 -47 -47
-47 -69 0 -2 117 -4 260 -4 253 0 260 1 260 20 0 11 1 20 3 20 1 0 26 -9 55
-20 29 -11 69 -20 89 -20 l36 0 -23 25 c-13 14 -21 27 -18 30 3 3 18 -8 32
-26 15 -17 29 -29 31 -27 10 10 -55 82 -187 208 -97 93 -145 147 -163 183 -30
62 -31 78 -5 95 18 11 27 8 73 -23 28 -19 64 -35 79 -35 22 0 39 -14 84 -70
31 -39 63 -70 70 -70 12 0 13 4 2 22 -19 34 -17 98 4 140 20 42 37 47 68 20
31 -26 60 -30 123 -14 41 11 61 12 69 4 7 -7 11 -91 11 -236 1 -163 4 -226 13
-226 12 0 24 75 24 158 0 28 2 52 4 52 13 0 153 -54 164 -63 10 -8 12 -25 7
-66 -4 -30 -9 -60 -12 -68 -3 -8 2 -13 15 -13 15 0 21 9 26 40 3 22 10 40 14
40 4 0 26 -18 47 -40 33 -34 45 -40 81 -40 53 0 104 18 104 36 0 18 101 84
164 108 l48 18 29 -28 c16 -15 37 -52 46 -81 12 -38 22 -53 35 -53 10 0 18 6
18 13 0 19 -50 117 -60 117 -4 0 -15 16 -24 35 -9 19 -23 35 -31 35 -31 0
-143 -52 -193 -90 -29 -22 -55 -40 -57 -40 -7 0 -117 118 -210 225 -148 171
-279 302 -318 318 -35 15 -47 31 -29 39 11 5 144 186 178 242 16 27 50 72 75
100 72 79 126 162 145 221 9 30 19 53 23 51 14 -9 11 107 -4 130 -16 25 -19
38 -7 31 6 -5 10 13 12 66 1 9 5 15 10 12 4 -3 11 1 13 7 3 8 6 9 6 2 1 -6 12
-9 25 -7 13 3 26 0 30 -5 3 -6 -2 -8 -13 -5 -10 3 -21 1 -24 -4 -9 -14 48 -9
59 6 9 12 20 6 63 -37 28 -28 51 -46 51 -41 0 6 5 7 11 3 19 -11 -7 29 -35 55
-32 31 -33 39 0 51 15 6 22 14 18 22 -5 7 -3 8 5 3 8 -4 25 1 42 14 15 11 31
21 34 21 3 0 6 -17 6 -37 2 -54 27 128 28 202 1 33 -5 85 -13 115 l-15 55 50
102 c47 96 52 102 71 92 32 -17 127 -5 305 40 87 22 203 50 258 61 111 22 145
47 145 105 0 17 14 50 30 74 17 24 30 40 30 35 0 -5 -7 -20 -16 -32 -8 -12
-10 -22 -5 -22 13 0 52 76 75 143 23 67 63 277 71 367 3 41 13 91 20 110 32
80 46 342 24 451 -5 30 -12 68 -14 84 -1 17 -8 70 -14 120 -8 54 -10 133 -6
200 5 83 2 155 -14 295 -12 101 -24 186 -26 189 -3 2 -5 -68 -5 -156 0 -214
-14 -339 -56 -513 -35 -145 -91 -302 -118 -329 -13 -12 -13 -9 -6 25 15 63 22
244 12 314 -8 59 -10 63 -20 40 l-11 -25 -1 30 c-1 17 -8 -13 -16 -65 -29
-202 -110 -441 -213 -635 -153 -286 -368 -521 -613 -670 -43 -25 -78 -48 -78
-50 0 -19 202 103 288 173 42 34 43 35 64 16 12 -11 18 -13 14 -6 -4 7 -2 12
4 12 8 0 10 9 6 23 -4 17 1 30 19 47 23 22 24 22 18 1 -3 -11 -9 -18 -14 -15
-5 3 -9 0 -9 -5 0 -34 110 23 148 77 18 25 19 31 7 36 -8 3 -15 11 -14 18 0
10 2 10 6 1 7 -18 33 -16 33 2 0 8 5 15 11 15 5 0 8 -4 5 -9 -15 -24 47 0 71
27 16 18 42 34 59 38 29 5 31 4 43 -38 7 -23 18 -52 26 -63 34 -54 25 -150
-18 -180 -12 -8 -16 -15 -10 -15 23 0 54 37 63 75 14 60 12 171 -4 210 -33 77
-102 73 -181 -13 -30 -33 -30 -33 -30 -8 0 16 4 21 10 16 17 -14 35 22 19 38
-10 9 -15 8 -24 -6 -11 -16 -11 -16 -6 1 6 20 -4 22 -24 5 -7 -7 -2 2 11 20
13 18 34 47 47 64 12 17 22 28 22 25 0 -3 24 1 53 8 77 19 179 27 208 16 l26
-9 7 -292 c8 -332 13 -310 -77 -353 -55 -27 -482 -110 -566 -110 -54 0 -71 19
-71 80 0 24 -4 43 -10 43 -5 0 -10 -4 -10 -10 0 -17 -138 -166 -192 -207 -142
-106 -336 -198 -618 -292 -234 -79 -607 -171 -691 -171 -18 0 -76 37 -185 121
-88 67 -176 132 -196 145 -64 41 -224 202 -301 302 -150 197 -157 213 -196
452 -12 69 -23 138 -26 154 l-5 29 29 -24 c147 -119 164 -131 143 -103 -13 16
-37 47 -53 69 -86 112 -170 343 -209 570 -25 149 -35 265 -23 265 6 0 29 -54
53 -120 23 -66 49 -128 58 -138 10 -10 13 -12 9 -6 -5 7 -15 36 -22 65 -17 62
-8 120 25 174 l23 38 105 -6 c57 -3 106 -8 109 -10 2 -3 -7 -21 -21 -42 -71
-104 -57 -252 34 -386 21 -32 36 -60 33 -63 -10 -10 62 -35 120 -42 52 -6 55
-5 77 26 29 41 60 140 60 193 0 42 -10 93 -26 132 -6 16 -3 15 15 -5 19 -21
22 -22 16 -5 -4 11 -8 35 -10 54 -2 22 -26 67 -66 125 l-62 91 -5 173 c-4 162
-4 172 14 172 14 0 15 3 6 12 -32 32 13 218 52 218 3 0 1 -12 -4 -26 -15 -38
-12 -40 11 -10 12 15 23 25 25 23 2 -2 11 -52 19 -113 38 -264 142 -506 235
-544 15 -6 33 -24 40 -39 6 -15 32 -50 56 -77 25 -27 34 -34 19 -15 -94 120
-126 275 -110 526 7 115 14 127 30 55 6 -26 73 -197 93 -237 11 -21 23 -58 27
-83 14 -82 46 -174 88 -247 22 -40 45 -73 50 -73 5 0 1 12 -9 28 -68 103 -113
256 -121 414 -5 96 -3 113 17 163 26 64 34 60 44 -22 4 -29 14 -71 22 -95 9
-24 22 -101 30 -173 7 -71 26 -183 41 -247 23 -98 30 -118 50 -127 13 -6 23
-15 23 -21 0 -5 5 -10 10 -10 6 0 0 19 -14 43 -27 47 -61 155 -52 165 4 3 23
-10 44 -30 20 -20 66 -52 102 -72 36 -20 61 -36 55 -36 -15 -1 57 -32 78 -35
11 -1 22 -6 25 -11 4 -5 14 -9 22 -10 8 -1 31 -4 50 -9 32 -6 33 -6 16 7 -17
14 -16 15 25 26 52 14 170 32 216 32 l33 0 -30 -42 c-75 -109 -73 -262 5 -364
22 -29 23 -33 7 -36 -12 -2 -6 -9 21 -22 24 -11 72 -20 130 -23 91 -6 93 -5
163 30 131 66 174 122 176 228 0 32 2 59 4 59 7 0 74 -139 74 -153 0 -7 -23
-36 -51 -65 l-50 -51 56 24 c31 14 78 36 104 50 45 22 49 23 66 7 10 -10 15
-11 10 -3 -4 8 -17 39 -29 70 -32 83 -131 273 -163 311 -57 69 -234 124 -398
124 -103 0 -241 -19 -250 -35 -4 -5 1 -6 9 -3 9 3 16 4 16 2 0 -10 -81 -90
-86 -85 -14 13 -23 515 -14 697 12 221 35 496 50 585 29 175 53 295 66 335 9
25 18 65 20 90 2 25 11 66 19 90 11 35 13 38 9 11 -4 -23 -3 -31 5 -27 6 4 12
19 12 34 2 27 2 27 6 2 2 -14 8 -34 13 -45 12 -23 90 -266 90 -278 0 -4 33
-97 74 -207 l75 -199 -34 -128 c-33 -127 -128 -427 -143 -450 -4 -7 -19 -16
-32 -22 -24 -10 -24 -10 -2 -10 12 -1 22 -3 22 -6 0 -3 -20 -45 -45 -93 l-45
-87 44 50 c25 28 58 71 73 97 27 47 29 48 78 48 57 0 236 -24 309 -41 l49 -12
49 -106 c27 -58 98 -205 158 -326 59 -121 111 -230 115 -243 8 -26 -68 -192
-137 -299 -113 -173 -286 -336 -463 -435 -27 -15 -45 -28 -40 -28 10 0 39 16
175 94 75 43 181 123 260 195 54 50 90 70 55 31 -10 -11 -14 -20 -9 -20 5 0
-2 -10 -16 -21 -14 -11 -19 -18 -12 -14 17 9 -2 -35 -45 -101 -35 -54 -160
-187 -233 -248 -58 -48 -32 -35 40 20 155 118 318 335 410 544 35 79 39 110 9
60 -27 -44 -166 -198 -191 -211 -11 -6 11 29 47 77 92 120 240 427 280 580 18
70 21 390 4 414 -8 11 -9 6 -5 -20 4 -22 2 -30 -3 -20 -5 8 -12 44 -16 80 -18
175 -107 500 -150 550 -7 8 -27 45 -43 83 -36 79 -51 90 -21 15 79 -199 114
-309 121 -386 3 -29 2 -50 -2 -45 -15 17 -79 183 -121 313 -37 114 -44 130
-49 105 -4 -16 -2 -39 3 -49 5 -11 29 -76 52 -145 24 -69 59 -164 79 -211 20
-46 36 -88 36 -92 0 -5 8 -27 18 -51 11 -23 27 -68 37 -99 10 -32 21 -58 24
-58 14 0 33 -68 31 -110 0 -25 -21 -97 -46 -165 -108 -287 -97 -263 -104 -230
-4 17 -33 93 -65 170 -65 158 -134 331 -142 358 -3 11 0 17 10 17 20 0 217
-66 287 -96 33 -14 47 -18 35 -8 -35 27 -177 92 -270 123 -72 24 -93 36 -105
58 -9 15 -27 48 -42 73 -14 25 -31 74 -38 110 -6 36 -20 90 -30 120 -10 30
-23 104 -30 165 -6 60 -15 112 -20 115 -7 4 10 103 56 320 13 62 19 138 10
129 -2 -2 -11 -45 -20 -94 -16 -95 -118 -406 -191 -586 -53 -130 -150 -325
-166 -335 -9 -5 -10 -2 -5 12 25 64 91 262 115 348 38 130 106 446 120 556 6
47 15 114 20 150 6 39 7 108 2 170 -5 58 -9 85 -10 60 -1 -25 -10 -67 -20 -95
-66 -180 -114 -312 -118 -327 -3 -10 -9 -18 -14 -18 -5 0 -9 8 -9 18 0 41 -52
225 -79 281 -40 83 -66 165 -92 293 -12 59 -25 105 -29 103 -34 -21 -123 -527
-167 -954 -15 -133 -18 -251 -17 -591 1 -247 5 -445 11 -472 10 -47 10 -48
-21 -67 -68 -42 -116 -32 -116 24 0 13 -5 36 -12 52 -6 15 -12 33 -14 40 -1 6
-7 19 -13 30 -11 16 -11 16 -6 -4 3 -13 2 -30 -3 -39 -8 -15 -10 -15 -15 0 -4
10 -3 15 3 11 12 -7 12 12 0 40 -7 17 -9 17 -9 3 -1 -10 -5 -18 -11 -18 -5 0
-10 8 -10 18 -1 15 -2 15 -17 -3 -15 -19 -15 -19 -10 10 4 17 4 24 1 18 -3 -7
-12 -13 -20 -13 -9 0 -12 4 -9 10 3 6 1 10 -5 10 -16 0 -45 36 -72 88 -12 23
-29 50 -38 60 -13 13 -14 21 -6 34 5 9 7 21 3 25 -5 4 -12 1 -17 -7 -6 -10
-10 -11 -10 -3 0 7 -10 22 -22 34 -13 12 -18 19 -11 15 15 -8 27 10 12 19 -5
4 -8 14 -5 22 4 9 1 22 -5 29 -6 8 -9 24 -6 36 4 12 1 28 -4 35 -15 18 -1 133
17 140 8 3 11 9 8 14 -3 5 0 17 5 26 6 10 11 12 11 6 0 -9 16 -13 45 -13 40 0
45 -3 45 -22 1 -23 1 -23 15 2 14 25 14 25 15 -13 0 -22 4 -36 10 -32 5 3 12
-6 15 -20 3 -14 7 -37 10 -51 4 -16 2 -23 -5 -19 -6 4 -7 -2 -1 -17 5 -13 6
-39 4 -58 -3 -25 -2 -31 5 -21 7 10 12 -1 17 -43 4 -31 12 -59 17 -62 7 -4 8
51 5 157 -4 90 -3 151 2 134 4 -16 5 33 3 110 -4 131 3 228 29 382 10 59 29
78 29 30 0 -12 7 -35 15 -51 9 -16 20 -52 24 -80 8 -45 9 -47 10 -16 7 157 26
315 56 466 43 212 75 427 75 504 0 72 10 131 21 124 10 -6 39 59 39 87 0 13
-7 19 -23 19 -13 0 -29 6 -36 13 -11 10 -13 9 -7 -1 5 -7 -5 -25 -24 -45 -18
-17 -56 -58 -86 -90 -40 -44 -59 -58 -76 -55 -13 2 -22 9 -21 15 16 79 15 90
-6 96 -11 3 -25 -1 -32 -9 -6 -8 -29 -19 -50 -24 -22 -6 -39 -15 -39 -20 0 -6
-7 -10 -15 -10 -13 0 -13 3 2 19 10 10 25 21 33 24 12 4 12 6 -2 6 -13 1 -11
10 14 57 23 42 29 63 24 87 -3 19 -2 27 2 19 7 -10 12 -9 23 4 9 12 10 15 2
10 -8 -4 -13 -1 -13 8 0 10 -6 13 -16 9 -9 -3 -20 0 -25 8 -6 11 -11 11 -21 1
-9 -9 -8 -12 6 -12 10 0 16 -6 13 -12 -2 -7 -14 -12 -26 -11 -13 2 -21 -3 -21
-12 0 -8 -7 -15 -15 -15 -19 0 -19 5 1 35 15 23 15 25 0 25 -9 0 -16 5 -16 10
0 6 12 10 28 10 16 0 32 8 40 20 7 12 18 17 29 14 12 -4 14 -3 6 3 -8 6 0 21
28 53 62 70 92 100 100 100 7 0 18 -65 21 -135 3 -48 29 -127 45 -132 6 -2 22
8 36 22 14 16 32 25 43 23 19 -3 66 -76 58 -90 -3 -4 9 -2 26 3 34 12 49 36
76 122 10 31 24 57 31 57 7 0 13 5 13 12 0 6 2 9 5 6 3 -3 -2 -24 -10 -48 -8
-23 -15 -70 -15 -104 1 -57 2 -60 15 -36 7 14 18 26 24 26 32 4 26 -26 66 294
14 107 25 212 25 233 0 38 1 37 -65 63 -17 7 -15 9 13 12 59 6 86 44 112 157
40 177 46 218 32 223 -7 2 -12 9 -12 16 0 6 -28 20 -62 31 -88 26 -262 28
-483 5z m-380 -100 c-27 -12 -43 -12 -25 0 8 5 22 9 30 9 10 0 8 -3 -5 -9z
m-105 -39 c-8 -5 -31 -11 -50 -14 -35 -6 -35 -6 5 8 46 15 67 18 45 6z m540
-151 c69 -8 112 -18 159 -40 71 -34 76 -48 10 -29 -92 27 -514 1 -658 -41 -19
-5 -36 -8 -38 -6 -7 7 88 47 137 58 27 6 47 15 44 19 -5 8 116 37 181 42 22 2
47 4 55 5 8 1 58 -3 110 -8z m-914 -117 c-10 -10 -19 5 -10 18 6 11 8 11 12 0
2 -7 1 -15 -2 -18z m-86 -7 c0 -3 -4 -8 -10 -11 -5 -3 -10 -1 -10 4 0 6 5 11
10 11 6 0 10 -2 10 -4z m43 -14 c-16 -2 -20 -8 -16 -20 6 -14 5 -15 -9 -2 -14
13 -14 16 0 26 9 7 23 9 32 5 11 -4 10 -7 -7 -9z m-73 -12 c0 -5 -4 -10 -10
-10 -5 0 -10 5 -10 10 0 6 5 10 10 10 6 0 10 -4 10 -10z m-10 -20 c19 12 53
13 46 1 -7 -11 -56 -20 -73 -14 -7 3 -10 10 -7 15 4 7 9 7 13 0 4 -7 12 -8 21
-2z m980 -10 c-14 -11 -47 -31 -75 -46 -27 -15 -70 -44 -95 -63 -25 -20 -38
-27 -30 -17 28 36 191 146 215 146 6 0 -1 -9 -15 -20z m-860 -5 c0 -8 -2 -15
-4 -15 -2 0 -6 7 -10 15 -3 8 -1 15 4 15 6 0 10 -7 10 -15z m-166 -22 c-21
-16 -31 -16 -39 -3 -3 6 3 10 15 10 12 0 18 4 15 10 -4 6 1 7 11 3 16 -6 15
-7 -2 -20z m-48 -15 c4 -7 3 -8 -4 -4 -7 4 -12 2 -12 -3 0 -6 -5 -11 -11 -11
-8 0 -8 5 1 15 15 18 17 18 26 3z m221 -14 c0 -6 -10 -9 -21 -7 -15 3 -17 2
-8 -4 17 -12 -29 -35 -47 -23 -17 10 2 22 23 14 11 -4 14 -1 12 13 -3 13 2 18
18 18 13 0 23 -5 23 -11z m147 -39 c0 -5 -36 -30 -81 -55 -44 -25 -118 -76
-165 -115 -47 -38 -116 -93 -154 -122 -159 -121 -162 -122 -168 -107 -11 27
150 191 309 316 61 48 178 99 220 96 22 -2 40 -7 39 -13z m-229 -15 c4 -6 -1
-7 -11 -3 -13 5 -15 3 -9 -7 5 -9 4 -11 -4 -6 -6 4 -9 12 -6 17 8 12 22 12 30
-1z m258 -7 c-9 -3 -9 -12 -2 -30 13 -36 4 -41 -14 -7 -13 25 -13 30 2 40 9 7
18 10 21 7 3 -3 0 -8 -7 -10z m19 -15 c-8 -8 -9 -4 -5 13 4 13 8 18 11 10 2
-7 -1 -18 -6 -23z m-312 -2 c0 -2 -8 -10 -17 -17 -16 -13 -17 -12 -4 4 13 16
21 21 21 13z m705 -66 c-28 -27 -54 -50 -60 -50 -5 0 15 24 45 54 30 30 57 52
60 50 2 -3 -18 -27 -45 -54z m-449 13 c-10 -10 -19 5 -10 18 6 11 8 11 12 0 2
-7 1 -15 -2 -18z m-26 -31 c-6 -2 -10 -10 -10 -17 0 -8 -9 -19 -20 -25 -11 -6
-19 -18 -18 -27 2 -9 -3 -18 -9 -20 -21 -7 -15 12 20 64 19 29 35 45 39 39 4
-6 3 -12 -2 -14z m375 -34 c-22 -24 -41 -45 -42 -47 -2 -2 -5 -2 -8 1 -5 5 74
88 84 88 3 0 -13 -19 -34 -42z m-315 6 c0 -2 -7 -4 -15 -4 -8 0 -15 4 -15 10
0 5 7 7 15 4 8 -4 15 -8 15 -10z m56 -20 c-3 -9 -6 -20 -6 -25 0 -5 -4 -9 -9
-9 -5 0 -7 10 -3 22 4 17 2 20 -12 15 -10 -4 -15 -3 -11 3 3 6 15 10 27 10 14
0 18 -5 14 -16z m-56 -14 c20 -6 14 -8 -28 -9 -33 -1 -51 3 -47 9 7 12 39 12
75 0z m-25 -31 c3 -4 -6 -9 -20 -11 -14 -3 -25 -1 -25 4 0 5 -5 6 -12 2 -6 -4
-8 -3 -5 2 6 11 52 13 62 3z m135 1 c0 -5 -7 -10 -16 -10 -8 0 -12 5 -9 10 3
6 10 10 16 10 5 0 9 -4 9 -10z m-47 -16 c15 -3 27 -10 27 -15 0 -11 -49 -1
-67 13 -7 6 -13 4 -16 -4 -3 -8 -6 -6 -6 5 -1 13 4 17 17 13 9 -3 29 -8 45
-12z m197 6 c0 -5 -8 -13 -17 -19 -10 -5 -15 -13 -11 -17 9 -8 -31 -84 -44
-84 -4 0 -8 12 -8 26 0 16 -4 23 -12 18 -7 -5 -8 -3 -3 6 6 10 11 9 22 -6 12
-16 15 -17 23 -4 13 20 12 47 -1 56 -7 4 -2 11 13 19 29 16 38 18 38 5z m-365
-20 c-11 -5 -29 -9 -40 -9 -17 -1 -17 1 -5 9 8 5 26 9 40 9 23 0 23 -1 5 -9z
m223 -4 c-10 -7 -18 -18 -18 -25 0 -6 -13 -11 -28 -11 -16 0 -36 -6 -46 -13
-17 -13 -17 -14 -1 -31 17 -16 16 -18 -1 -31 -11 -8 -24 -15 -30 -15 -6 0 -17
-7 -24 -15 -7 -8 -16 -15 -21 -15 -9 0 5 29 45 87 15 23 25 47 21 52 -3 6 -1
11 4 11 6 0 11 -4 11 -8 0 -13 58 -1 71 14 6 8 17 14 23 14 6 0 3 -7 -6 -14z
m82 -16 c0 -5 -5 -10 -11 -10 -5 0 -7 5 -4 10 3 6 8 10 11 10 2 0 4 -4 4 -10z
m-45 -10 c-3 -5 -11 -10 -16 -10 -6 0 -7 5 -4 10 3 6 11 10 16 10 6 0 7 -4 4
-10z m-28 -26 c-3 -3 -12 -4 -19 -1 -8 3 -5 6 6 6 11 1 17 -2 13 -5z m167 -28
c-17 -9 -16 -11 11 -17 28 -6 27 -7 -11 -8 l-42 -1 27 29 c14 16 28 24 30 19
2 -6 -5 -16 -15 -22z m142 19 c-3 -8 -1 -15 4 -15 6 0 10 -11 10 -24 0 -25
-48 -56 -88 -56 -19 0 -20 2 -5 31 9 19 20 28 29 25 9 -3 14 1 14 12 0 19 18
42 33 42 5 0 7 -7 3 -15z m-351 -5 c-3 -5 -13 -10 -21 -10 -8 0 -14 5 -14 10
0 6 9 10 21 10 11 0 17 -4 14 -10z m242 -85 c1 -18 -1 -22 -4 -10 -3 11 -13
25 -22 33 -14 12 -14 13 4 10 14 -2 21 -12 22 -33z m-166 -8 c-10 -9 -11 -8
-5 6 3 10 9 15 12 12 3 -3 0 -11 -7 -18z m-11 -29 c0 -17 -48 -73 -56 -66 -3
3 6 17 20 31 14 15 26 31 26 37 0 5 2 10 5 10 3 0 5 -6 5 -12z m-200 -765
c-17 -55 -35 -93 -43 -93 -5 0 -6 7 -3 16 3 9 9 27 12 40 3 13 10 24 15 24 5
0 9 9 9 20 0 11 4 20 9 20 6 0 6 -11 1 -27z m103 -121 c-7 -48 -16 -107 -19
-130 -5 -29 -10 -39 -15 -30 -19 29 -4 189 23 257 19 48 25 -4 11 -97z m524
-14 c-3 -7 -5 -2 -5 12 0 14 2 19 5 13 2 -7 2 -19 0 -25z m-10 -50 c-3 -8 -6
-5 -6 6 -1 11 2 17 5 13 3 -3 4 -12 1 -19z m-550 -140 c-3 -8 -6 -5 -6 6 -1
11 2 17 5 13 3 -3 4 -12 1 -19z m-1060 -13 c11 -11 19 -13 27 -5 7 5 16 7 20
3 11 -11 50 -9 58 2 5 6 13 4 23 -5 13 -14 9 -38 -40 -233 -30 -119 -59 -226
-64 -236 -6 -10 -7 -22 -3 -26 4 -5 1 -5 -5 -1 -9 5 -13 -1 -14 -21 0 -25 -1
-26 -9 -8 -8 18 -9 18 -10 -5 l-2 -25 -8 25 c-7 23 -8 23 -10 -10 -1 -19 -4
-27 -7 -17 -2 9 -9 17 -14 17 -5 0 -9 -8 -9 -17 0 -15 -2 -15 -9 -4 -12 18
-19 -23 -25 -124 -2 -38 -2 38 -1 170 2 173 8 264 20 325 17 87 53 210 62 210
2 0 11 -7 20 -15z m1162 -226 c1 -52 8 -137 17 -188 9 -51 14 -95 11 -97 -11
-11 -42 78 -58 166 -22 113 -23 196 -7 293 l12 72 13 -75 c6 -41 12 -118 12
-171z m438 119 c-2 -24 -4 -7 -4 37 0 44 2 63 4 43 2 -21 2 -57 0 -80z m-1100
55 c-7 -60 7 -150 18 -116 4 13 11 21 15 18 5 -3 11 -1 15 5 4 6 11 8 16 4 13
-8 0 -296 -14 -310 -4 -5 -147 22 -154 29 -9 10 16 167 28 177 4 3 9 29 12 59
3 30 12 58 19 62 10 7 10 9 1 9 -7 0 -13 7 -13 16 0 8 5 12 10 9 10 -6 13 4
11 40 0 11 2 14 5 7 8 -17 24 -5 24 19 0 10 3 19 6 19 4 0 4 -21 1 -47z m-778
-389 c-6 -60 -9 -184 -7 -276 l4 -167 -42 -42 c-23 -23 -47 -38 -52 -35 -17
10 -51 111 -62 185 -10 61 -9 75 11 132 39 112 144 327 155 316 2 -2 -1 -53
-7 -113z m1129 91 c-3 -3 -9 2 -12 12 -6 14 -5 15 5 6 7 -7 10 -15 7 -18z
m1642 -188 c45 -104 80 -190 77 -193 -2 -3 -57 2 -121 11 -64 8 -147 15 -183
15 l-65 0 16 23 c42 58 65 97 92 157 30 69 94 184 99 178 1 -2 40 -88 85 -191z
m-1445 68 c31 -169 36 -199 32 -219 -2 -14 -7 -7 -15 24 -7 25 -17 53 -23 63
-5 10 -7 21 -5 26 3 4 -1 29 -9 56 -16 51 -19 103 -9 130 4 9 8 15 9 13 2 -2
11 -44 20 -93z m392 33 c-3 -8 -6 -5 -6 6 -1 11 2 17 5 13 3 -3 4 -12 1 -19z
m-1081 -68 c5 0 2 5 -6 11 -13 9 -13 10 0 7 9 -3 18 -30 26 -79 16 -96 40
-174 70 -225 l24 -42 -48 -6 c-70 -10 -141 -27 -147 -36 -2 -4 8 -5 23 -2 l27
5 -30 -32 -30 -32 -3 93 c-3 82 1 137 24 341 l6 49 27 -26 c15 -14 31 -26 37
-26z m1031 18 c-3 -7 -5 -2 -5 12 0 14 2 19 5 13 2 -7 2 -19 0 -25z m-872 -3
l31 -12 -8 -104 c-4 -57 -3 -133 2 -169 5 -35 8 -66 6 -67 -7 -8 -56 21 -54
31 1 6 -6 25 -15 43 -9 18 -17 43 -17 57 0 13 -3 32 -6 41 -5 13 -8 14 -15 3
-6 -9 -9 -3 -9 18 0 16 -4 34 -9 40 -8 8 -31 110 -31 136 0 11 85 0 125 -17z
m902 -12 c-3 -10 -5 -4 -5 12 0 17 2 24 5 18 2 -7 2 -21 0 -30z m-967 -193 c0
-5 -2 -10 -4 -10 -3 0 -8 5 -11 10 -3 6 -1 10 4 10 6 0 11 -4 11 -10z m227
-115 c21 -63 21 -65 2 -65 -10 0 -19 5 -19 11 0 5 -5 7 -11 3 -6 -3 -15 -1
-19 5 -8 14 9 111 19 111 4 0 16 -29 28 -65z m-428 -111 c1 -17 -6 -37 -14
-44 -13 -11 -15 -2 -14 71 1 84 1 84 14 44 8 -22 14 -54 14 -71z m419 -206 c2
-12 -5 -19 -23 -24 -34 -8 -53 9 -35 31 17 20 54 16 58 -7z m2 -162 c8 -1 16
-15 18 -30 3 -21 12 -31 40 -43 35 -14 37 -14 54 7 10 12 18 30 19 39 1 32 18
-23 18 -62 1 -23 5 -36 11 -32 14 8 13 -38 -2 -70 -11 -24 -17 -27 -58 -27
-40 0 -46 2 -32 11 9 5 0 13 -31 25 -69 26 -89 54 -94 132 -4 66 -4 67 19 60
13 -4 30 -8 38 -10z m1559 -20 c18 -21 -21 -58 -56 -54 -34 4 -51 31 -34 52
17 20 75 21 90 2z m-49 -131 c18 -9 29 -10 38 -3 18 15 26 3 13 -21 -9 -16 -7
-25 11 -46 13 -14 34 -28 48 -30 29 -6 70 19 70 43 1 14 3 14 13 -4 9 -16 20
-19 50 -17 32 3 37 0 37 -17 0 -12 -7 -35 -16 -53 -11 -21 -12 -28 -3 -19 25
24 29 12 7 -22 -13 -19 -38 -42 -56 -50 -76 -37 -259 -3 -269 49 -1 6 -5 19
-8 30 -6 17 -5 18 5 5 10 -13 11 -12 5 5 -12 32 -18 112 -11 139 7 29 28 33
66 11z m-2471 -249 c-6 -25 -16 -49 -22 -53 -6 -4 -8 0 -4 9 3 9 11 34 18 57
16 55 23 45 8 -13z m-30 -13 c-17 -50 -30 -64 -19 -22 10 45 21 71 27 65 3 -2
-1 -22 -8 -43z m14 -218 c58 -160 87 -246 86 -257 0 -10 -2 -10 -6 0 -2 6 -10
9 -16 5 -7 -4 -8 0 -4 13 6 17 6 17 -6 3 -10 -14 -14 -14 -25 -3 -6 7 -12 19
-12 26 0 10 -3 9 -9 -1 -10 -15 -12 -7 -26 94 -9 63 -9 173 -1 164 3 -2 11
-22 19 -44z m2987 -10 c-7 -8 -17 -15 -22 -15 -6 0 -5 7 2 15 7 8 17 15 22 15
6 0 5 -7 -2 -15z m294 -73 c3 -5 -1 -9 -9 -9 -8 0 -12 4 -9 9 3 4 7 8 9 8 2 0
6 -4 9 -8z m-79 -61 c-9 -16 -25 -3 -18 15 4 10 9 12 15 6 6 -6 7 -15 3 -21z
m-3095 -152 c0 -6 -4 -7 -10 -4 -5 3 -10 11 -10 16 0 6 5 7 10 4 6 -3 10 -11
10 -16z m423 -309 c3 -11 1 -18 -4 -14 -5 3 -9 12 -9 20 0 20 7 17 13 -6z
m2222 -198 c-66 -164 -128 -412 -164 -659 -6 -39 -11 -74 -11 -77 0 -2 -18
-24 -41 -48 -39 -41 -158 -207 -228 -315 -18 -29 -38 -53 -45 -53 -6 0 -24
-14 -39 -30 -16 -17 -33 -28 -38 -24 -5 3 -9 -1 -9 -9 0 -8 -19 -38 -42 -67
-53 -66 -98 -156 -98 -194 0 -26 -5 -23 -60 47 -33 41 -60 79 -60 85 0 5 -11
17 -24 25 -14 10 -28 33 -35 62 -15 61 -138 255 -272 429 -21 28 -49 65 -61
81 -13 17 -35 46 -50 66 -25 33 -26 38 -12 50 25 21 92 169 97 217 2 25 12 48
22 56 16 12 16 13 0 29 -9 9 -13 17 -9 17 4 0 -1 8 -10 19 -16 18 -15 18 56
19 198 3 670 121 851 213 43 22 83 37 89 33 6 -4 8 -3 5 3 -3 5 34 29 83 53
49 24 102 54 117 66 16 12 29 21 30 20 2 -1 -17 -53 -42 -114z m-101 -507 c-4
-8 -1 -15 5 -15 8 0 8 -5 1 -17 -5 -10 -15 -31 -20 -47 -15 -42 -20 -28 -9 24
12 55 17 70 23 70 3 0 3 -7 0 -15z m-1197 -57 c-3 -7 -5 -2 -5 12 0 14 2 19 5
13 2 -7 2 -19 0 -25z m-5 -50 c-8 -8 -9 -4 -5 13 4 13 8 18 11 10 2 -7 -1 -18
-6 -23z m1158 -88 c-6 -12 -14 -19 -17 -17 -2 3 1 15 7 27 6 12 14 19 17 17 2
-3 -1 -15 -7 -27z m-1103 -105 c0 -8 -4 -12 -9 -9 -5 3 -6 10 -3 15 9 13 12
11 12 -6z m47 -43 c3 -5 -1 -9 -9 -9 -8 0 -12 4 -9 9 3 4 7 8 9 8 2 0 6 -4 9
-8z m287 -469 c13 -16 12 -17 -3 -4 -10 7 -18 15 -18 17 0 8 8 3 21 -13z
m-368 -68 c-3 -9 -8 -14 -10 -11 -3 3 -2 9 2 15 9 16 15 13 8 -4z m-27 -35 c0
-12 -4 -16 -9 -11 -5 5 -6 14 -3 20 10 15 12 14 12 -9z m-38 -30 c-7 -10 -14
-17 -17 -15 -4 4 18 35 25 35 2 0 -1 -9 -8 -20z m1214 -147 c22 -27 58 -93 50
-93 -17 1 -64 53 -72 80 -10 34 -1 39 22 13z"/>
<path d="M2470 5783 c0 -12 -8 -24 -17 -26 -14 -4 -13 -5 3 -6 25 -1 36 19 23
40 -7 11 -9 9 -9 -8z"/>
<path d="M1741 4064 c0 -11 3 -14 6 -6 3 7 2 16 -1 19 -3 4 -6 -2 -5 -13z"/>
<path d="M5253 6460 c-70 -10 -172 -37 -315 -83 -108 -35 -109 -35 -27 -87 27
-18 49 -35 49 -39 0 -4 23 -31 52 -61 125 -133 241 -313 326 -505 140 -319
256 -824 283 -1230 15 -228 5 -704 -16 -806 -16 -73 -20 -337 -7 -434 l7 -50
18 54 c9 29 18 61 18 70 1 9 5 -2 8 -24 l7 -40 10 43 c11 52 25 58 39 17 5
-16 13 -32 16 -35 7 -6 114 -289 190 -503 83 -233 126 -406 139 -557 l7 -85 2
86 1 87 47 11 c26 7 43 15 38 19 -6 4 -11 50 -13 104 -1 53 -9 138 -17 189 -7
52 -12 95 -10 97 5 5 175 -283 175 -297 0 -3 -27 -23 -60 -45 -33 -21 -60 -40
-60 -43 0 -9 176 91 270 153 52 34 117 83 145 109 27 25 82 62 122 82 72 35
72 36 59 62 -43 82 -181 246 -198 235 -6 -4 -8 -3 -4 4 3 6 2 13 -4 17 -5 3
-10 1 -10 -6 0 -14 -63 67 -94 122 l-23 39 3 -157 c2 -87 7 -186 12 -220 5
-35 5 -63 2 -63 -3 0 -34 42 -67 93 -33 50 -69 102 -79 114 -22 24 -245 306
-319 402 l-50 64 0 131 c0 138 -18 274 -61 454 -13 56 -26 113 -28 125 -3 12
-30 102 -61 200 -59 188 -112 320 -126 312 -10 -7 -16 15 -29 111 -6 45 -7 90
-4 100 4 10 28 51 53 89 26 39 52 83 59 98 18 42 14 142 -9 220 -23 78 -22 93
18 227 14 47 27 94 28 105 2 11 4 20 5 20 1 0 3 8 5 19 2 10 9 41 15 68 7 27
11 51 9 52 -2 2 -53 29 -114 61 -143 74 -198 117 -258 204 l-18 26 4 -57 c5
-58 -4 -74 -21 -40 -14 26 -84 382 -78 397 2 7 103 37 240 71 130 32 236 61
236 65 0 10 -52 18 -195 29 -201 17 -277 19 -342 10z m245 -857 c22 -51 65
-134 95 -185 73 -124 119 -253 120 -338 1 -55 -4 -77 -36 -143 -20 -43 -40
-76 -45 -73 -5 3 -12 47 -16 98 -16 219 -78 486 -161 690 -29 71 -30 78 -11
58 8 -8 33 -57 54 -107z m240 -1243 c28 -85 123 -462 118 -467 -2 -2 -14 26
-26 63 -13 37 -45 122 -73 188 -47 114 -50 126 -48 203 1 47 -3 84 -9 88 -5 3
-10 11 -10 18 0 23 28 -30 48 -93z m-33 -139 c-3 -2 -16 6 -30 19 -19 18 -25
33 -24 64 l1 41 28 -59 c16 -33 27 -62 25 -65z m98 -241 c37 -93 41 -114 41
-185 -1 -44 -6 -114 -13 -155 -21 -135 -15 -130 -71 -60 -55 69 -54 63 -39
170 10 78 13 350 4 397 -7 37 24 -30 78 -167z m110 -937 c29 -61 47 -165 46
-268 l0 -60 -35 90 c-34 86 -71 266 -59 286 12 18 22 8 48 -48z"/>
<path d="M3781 6306 c2 -2 48 -9 102 -15 116 -13 255 -56 395 -122 56 -26 100
-44 98 -40 -3 4 -44 27 -91 50 -124 61 -281 110 -389 121 -103 11 -121 12
-115 6z"/>
<path d="M5374 6066 c-8 -21 4 -104 16 -111 6 -4 7 19 4 57 -7 70 -11 79 -20
54z"/>
<path d="M3085 5801 c-3 -5 -1 -12 5 -16 5 -3 10 1 10 9 0 18 -6 21 -15 7z"/>
<path d="M3142 5760 c0 -14 2 -19 5 -12 2 6 2 18 0 25 -3 6 -5 1 -5 -13z"/>
<path d="M4778 5750 c84 -146 210 -439 265 -615 69 -221 137 -540 179 -846 19
-142 23 -207 23 -479 0 -384 -20 -563 -101 -920 -4 -20 -3 -22 5 -9 26 41 83
349 106 572 17 167 20 568 5 747 -24 291 -33 372 -57 490 -14 68 -38 163 -55
210 -16 47 -33 104 -38 126 -5 23 -22 72 -39 110 -16 38 -57 139 -91 224 -58
149 -166 362 -203 404 -16 18 -16 16 1 -14z"/>
<path d="M3051 5744 c0 -11 3 -14 6 -6 3 7 2 16 -1 19 -3 4 -6 -2 -5 -13z"/>
<path d="M3912 5610 c0 -8 4 -26 8 -40 6 -20 8 -21 8 -5 0 11 -3 29 -8 40 -5
12 -8 14 -8 5z"/>
<path d="M3010 5535 c0 -8 4 -15 10 -15 5 0 7 7 4 15 -4 8 -8 15 -10 15 -2 0
-4 -7 -4 -15z"/>
<path d="M3930 5532 c0 -6 6 -41 14 -79 7 -37 21 -131 31 -208 9 -77 20 -158
24 -180 l9 -40 1 41 c1 54 -23 234 -50 364 -19 97 -29 130 -29 102z"/>
<path d="M3181 5504 c0 -11 3 -14 6 -6 3 7 2 16 -1 19 -3 4 -6 -2 -5 -13z"/>
<path d="M3131 5454 c0 -11 3 -14 6 -6 3 7 2 16 -1 19 -3 4 -6 -2 -5 -13z"/>
<path d="M4711 4708 c59 -174 133 -474 154 -623 9 -60 18 -111 21 -114 16 -17
-15 193 -57 377 -44 194 -143 502 -162 502 -2 0 18 -64 44 -142z"/>
<path d="M961 4554 c0 -11 3 -14 6 -6 3 7 2 16 -1 19 -3 4 -6 -2 -5 -13z"/>
<path d="M951 4514 c0 -11 3 -14 6 -6 3 7 2 16 -1 19 -3 4 -6 -2 -5 -13z"/>
<path d="M931 4434 c0 -11 3 -14 6 -6 3 7 2 16 -1 19 -3 4 -6 -2 -5 -13z"/>
<path d="M922 4390 c0 -14 2 -19 5 -12 2 6 2 18 0 25 -3 6 -5 1 -5 -13z"/>
<path d="M911 4334 c0 -11 3 -14 6 -6 3 7 2 16 -1 19 -3 4 -6 -2 -5 -13z"/>
<path d="M901 4274 c0 -11 3 -14 6 -6 3 7 2 16 -1 19 -3 4 -6 -2 -5 -13z"/>
<path d="M2981 3984 c0 -11 3 -14 6 -6 3 7 2 16 -1 19 -3 4 -6 -2 -5 -13z"/>
<path d="M3000 3985 c0 -8 5 -15 10 -15 6 0 10 7 10 15 0 8 -4 15 -10 15 -5 0
-10 -7 -10 -15z"/>
<path d="M2847 3953 c-4 -3 -7 -11 -7 -17 0 -6 5 -5 12 2 6 6 9 14 7 17 -3 3
-9 2 -12 -2z"/>
<path d="M2871 3814 c0 -11 3 -14 6 -6 3 7 2 16 -1 19 -3 4 -6 -2 -5 -13z"/>
<path d="M3095 3555 c7 -31 12 -41 19 -34 2 2 -3 18 -11 34 l-14 30 6 -30z"/>
<path d="M5673 2828 c3 -136 -17 -291 -48 -372 -30 -79 -86 -195 -153 -315
l-47 -84 -2 69 c-7 188 -32 410 -54 482 -18 55 -20 29 -5 -45 18 -85 36 -315
36 -473 1 -110 1 -113 15 -81 8 18 36 67 61 108 36 57 50 72 63 67 44 -20 90
-16 148 13 32 17 73 33 91 36 l32 7 1 -68 c0 -56 2 -63 11 -42 17 43 3 334
-20 410 -11 36 -27 102 -36 146 -14 72 -77 234 -91 234 -2 0 -4 -42 -2 -92z"/>
<path d="M500 2875 c0 -5 5 -17 10 -25 5 -8 10 -10 10 -5 0 6 -5 17 -10 25 -5
8 -10 11 -10 5z"/>
<path d="M560 2833 c-40 -63 -71 -147 -76 -208 l-4 -50 14 60 c17 74 57 175
86 215 12 16 19 30 15 30 -3 0 -19 -21 -35 -47z"/>
<path d="M3898 2863 c7 -3 16 -2 19 1 4 3 -2 6 -13 5 -11 0 -14 -3 -6 -6z"/>
<path d="M484 2835 c3 -9 0 -15 -8 -15 -7 0 -18 -12 -25 -26 -13 -30 -34 -165
-29 -197 1 -12 -1 -27 -4 -33 -4 -6 -1 -11 6 -11 8 0 18 19 24 46 5 25 18 71
27 101 9 30 17 68 17 83 1 16 4 24 8 17 5 -8 9 -7 13 4 4 9 2 16 -3 16 -6 0
-10 7 -10 15 0 8 -5 15 -11 15 -6 0 -9 -7 -5 -15z"/>
<path d="M3798 2843 c6 -2 18 -2 25 0 6 3 1 5 -13 5 -14 0 -19 -2 -12 -5z"/>
<path d="M4490 2559 c0 -4 7 -23 15 -42 19 -46 20 -44 -12 -61 l-28 -15 31 -1
c42 0 61 23 45 53 -15 28 -50 74 -51 66z"/>
<path d="M801 2524 c0 -11 3 -14 6 -6 3 7 2 16 -1 19 -3 4 -6 -2 -5 -13z"/>
<path d="M4355 2520 c4 -6 11 -8 16 -5 14 9 11 15 -7 15 -8 0 -12 -5 -9 -10z"/>
<path d="M5207 2337 c2 -89 8 -259 14 -377 9 -189 9 -220 -5 -259 -21 -58 -19
-66 4 -15 10 23 31 61 46 85 l28 44 6 -30 c5 -22 9 -6 14 55 6 68 2 117 -17
245 -14 88 -28 185 -32 215 -6 53 -37 162 -53 187 -4 7 -6 -61 -5 -150z"/>
<path d="M4401 2438 c-6 -7 -33 -39 -60 -71 -61 -72 -75 -107 -55 -136 13 -17
25 -21 72 -20 31 0 82 9 112 19 30 11 44 17 30 15 -14 -3 -61 -8 -105 -12 -66
-5 -83 -3 -93 10 -11 13 -9 23 13 61 15 26 38 54 51 65 13 10 28 30 35 44 7
16 22 27 38 30 l26 4 -27 2 c-15 0 -32 -5 -37 -11z"/>
<path d="M852 2340 c0 -19 2 -27 5 -17 2 9 2 25 0 35 -3 9 -5 1 -5 -18z"/>
<path d="M4519 2349 c13 -12 29 -36 37 -53 7 -17 13 -24 14 -15 0 9 -7 33 -15
53 -11 26 -21 36 -37 36 l-22 0 23 -21z"/>
<path d="M2580 2178 c0 -12 14 -19 85 -47 9 -3 -44 35 -72 53 -8 4 -13 2 -13
-6z"/>
<path d="M4865 2115 c-15 -41 -31 -73 -34 -70 -4 2 -12 -32 -19 -75 -26 -163
-91 -298 -185 -387 -74 -69 -171 -141 -249 -184 -68 -37 -55 -37 25 -1 120 55
347 250 424 366 25 37 59 103 76 145 25 66 29 85 24 146 -2 38 -11 85 -19 102
l-14 33 -29 -75z"/>
<path d="M2845 2145 l-40 -12 42 -4 c50 -5 63 -2 63 17 0 16 -11 16 -65 -1z"/>
<path d="M5131 2027 c-12 -40 -26 -81 -31 -92 -5 -11 -19 -46 -30 -77 -47
-127 -221 -306 -376 -385 -51 -26 -91 -49 -89 -52 2 -2 41 15 87 38 169 84
288 198 367 352 38 74 41 78 42 47 0 -19 8 5 20 60 11 51 26 111 33 133 8 21
11 41 7 44 -4 2 -17 -28 -30 -68z"/>
<path d="M4212 1925 c-2 -108 -36 -304 -68 -390 -4 -11 -4 -17 -1 -14 10 8 57
149 57 168 0 16 15 47 52 111 l20 35 -24 -29 -25 -29 5 105 c3 63 1 108 -5
111 -6 4 -11 -23 -11 -68z"/>
<path d="M1955 1833 c0 -76 -3 -165 -7 -198 -5 -47 -4 -54 4 -30 13 40 22 292
12 333 -6 22 -9 -10 -9 -105z"/>
<path d="M5402 1925 c0 -16 2 -22 5 -12 2 9 2 23 0 30 -3 6 -5 -1 -5 -18z"/>
<path d="M4316 1870 c4 -52 -17 -306 -32 -367 -4 -15 -4 -26 -1 -22 4 3 15 52
27 110 21 107 25 263 9 309 -6 17 -7 8 -3 -30z"/>
<path d="M4286 1885 c-9 -26 -7 -32 5 -12 6 10 9 21 6 23 -2 3 -7 -2 -11 -11z"/>
<path d="M1506 1735 c10 -8 23 -15 28 -15 6 0 1 7 -10 15 -10 8 -23 15 -28 15
-6 0 -1 -7 10 -15z"/>
<path d="M2374 1441 c-38 -27 -109 -89 -159 -139 -60 -61 -100 -94 -120 -98
-16 -3 -45 -15 -63 -25 -19 -11 -37 -17 -42 -14 -5 3 -10 0 -12 -7 -3 -7 -7
-5 -11 6 -4 10 -3 15 3 11 15 -9 12 8 -10 58 -11 25 -28 48 -37 51 -13 5 -14
9 -5 15 9 5 -4 26 -43 68 -105 116 -180 118 -333 9 -61 -44 -99 -62 -144 -70
-26 -5 -44 -17 -65 -44 -27 -35 -28 -42 -28 -142 0 -97 41 -432 65 -534 6 -23
15 -131 21 -241 5 -110 13 -233 15 -272 l6 -73 320 0 321 0 -7 223 c-3 122
-11 256 -16 297 -6 41 -15 154 -21 250 -15 232 -13 221 -26 251 -20 46 -20 93
0 97 10 2 17 -3 17 -12 0 -8 4 -17 9 -21 17 -10 20 11 6 38 -12 24 -11 27 10
41 13 8 36 18 51 22 28 7 28 6 13 -12 -26 -31 -49 -102 -48 -147 l2 -42 7 40
c9 54 35 100 101 182 60 73 218 224 269 256 27 17 37 27 27 27 -2 0 -35 -22
-73 -49z"/>
<path d="M4568 1413 c7 -3 16 -2 19 1 4 3 -2 6 -13 5 -11 0 -14 -3 -6 -6z"/>
<path d="M4040 1409 c0 -10 57 -162 85 -224 53 -120 72 -182 78 -260 9 -107
35 -279 58 -390 11 -49 30 -146 44 -215 42 -219 66 -311 81 -317 8 -3 17 -3
20 -1 2 3 -7 59 -21 124 -94 431 -98 455 -86 529 19 120 24 209 16 289 -7 79
-19 97 -30 46 -14 -65 -23 -33 -28 103 -3 78 -8 152 -12 165 -6 18 -4 22 13
22 12 0 24 -4 27 -10 3 -6 45 -9 93 -9 93 1 86 5 -53 28 -33 5 -87 19 -119 31
-49 18 -64 19 -85 10 -14 -6 -27 -8 -28 -3 -5 14 -52 88 -53 82z"/>
<path d="M4488 1253 c7 -3 16 -2 19 1 4 3 -2 6 -13 5 -11 0 -14 -3 -6 -6z"/>
<path d="M4574 1178 c7 -30 33 -243 41 -338 3 -41 15 -129 25 -195 36 -226 60
-415 60 -480 0 -54 3 -66 20 -75 12 -7 22 -25 26 -50 4 -26 12 -40 21 -40 18
0 11 53 -14 106 -17 35 -17 33 12 219 3 17 11 113 19 215 8 102 19 198 25 213
22 56 5 67 -22 15 -12 -26 -16 -29 -17 -13 -1 20 -2 20 -9 1 -7 -18 -9 -16
-19 12 -6 18 -7 30 -2 27 5 -3 1 9 -8 27 -11 23 -15 54 -14 100 2 66 2 66 -33
88 -26 16 -33 26 -26 33 13 13 162 15 271 4 63 -6 71 -5 50 5 -16 8 -80 13
-184 13 l-160 1 -21 64 c-12 35 -27 66 -34 68 -8 3 -10 -4 -7 -20z"/>
<path d="M958 1075 c-14 -64 48 -546 74 -570 7 -7 9 -1 4 20 -29 141 -57 342
-64 450 -5 83 -10 119 -14 100z"/>
<path d="M4953 978 c-27 -30 -36 -48 -25 -48 5 0 15 12 23 26 7 15 23 30 34
35 14 5 15 8 4 8 -8 1 -25 -9 -36 -21z"/>
<path d="M4980 950 c0 -5 5 -10 11 -10 5 0 7 5 4 10 -3 6 -8 10 -11 10 -2 0
-4 -4 -4 -10z"/>
<path d="M5175 905 c69 -191 103 -393 142 -837 5 -63 8 -68 29 -68 27 0 28 3
13 32 -6 11 -18 98 -25 192 -24 283 -91 593 -145 671 -12 17 -18 21 -14 10z"/>
<path d="M1061 450 c-1 -18 -4 -21 -10 -11 -14 21 -32 3 -26 -27 5 -26 5 -26
-6 -4 -15 27 -29 29 -29 3 0 -11 -5 -21 -11 -23 -21 -7 76 -212 147 -309 19
-26 34 -54 34 -63 0 -13 12 -16 66 -16 52 0 64 3 56 13 -12 14 -70 128 -105
207 -20 45 -57 145 -90 240 -4 11 -6 9 -7 -5 l-1 -20 -9 20 c-8 18 -9 18 -9
-5z"/>
<path d="M555 261 c-3 -10 -45 -49 -93 -86 -48 -38 -103 -84 -124 -103 -22
-21 -41 -31 -49 -27 -8 5 -10 4 -5 -4 4 -6 3 -18 -4 -26 -9 -11 11 -14 128
-14 l140 -1 4 37 c3 21 6 78 7 126 1 48 5 95 8 103 3 7 3 14 0 14 -3 0 -8 -8
-12 -19z"/>
<path d="M3080 252 c0 -4 37 -26 83 -49 77 -38 84 -44 109 -95 15 -29 30 -66
33 -81 4 -15 11 -27 16 -27 12 0 12 23 0 36 -6 5 -19 31 -30 57 l-21 48 60
-32 c83 -44 86 -30 4 17 -56 33 -71 47 -91 89 -22 44 -28 29 -8 -19 8 -17 7
-18 -16 -3 -37 25 -139 68 -139 59z"/>
</g>
</svg>
